<mxfile host="app.diagrams.net" modified="2021-07-18T02:35:06.481Z" agent="5.0 (Macintosh; Intel Mac OS X 10_16_0) AppleWebKit/537.36 (KHTML, like Gecko) Chrome/81.0.4044.138 Safari/537.36" etag="UY2PCmmVxUajUzRiiq8O" version="14.8.5" type="github">
  <diagram id="C5RBs43oDa-KdzZeNtuy" name="Page-1">
    <mxGraphModel dx="1186" dy="607" grid="1" gridSize="10" guides="1" tooltips="1" connect="1" arrows="1" fold="1" page="1" pageScale="1" pageWidth="827" pageHeight="1169" math="0" shadow="0">
      <root>
        <object label="" id="WIyWlLk6GJQsqaUBKTNV-0">
          <mxCell />
        </object>
        <mxCell id="WIyWlLk6GJQsqaUBKTNV-1" parent="WIyWlLk6GJQsqaUBKTNV-0" />
        <mxCell id="ZauKNGMCCzKdzQJjRfw_-163" value="磁盘数据" style="rounded=0;whiteSpace=wrap;html=1;labelBackgroundColor=none;verticalAlign=top;" parent="WIyWlLk6GJQsqaUBKTNV-1" vertex="1">
          <mxGeometry x="600" y="60" width="200" height="410" as="geometry" />
        </mxCell>
        <mxCell id="ZauKNGMCCzKdzQJjRfw_-85" value="" style="shape=table;html=1;whiteSpace=wrap;startSize=0;container=1;collapsible=0;childLayout=tableLayout;" parent="WIyWlLk6GJQsqaUBKTNV-1" vertex="1">
          <mxGeometry x="610" y="110" width="180" height="320" as="geometry" />
        </mxCell>
        <mxCell id="ZauKNGMCCzKdzQJjRfw_-86" value="" style="shape=partialRectangle;html=1;whiteSpace=wrap;collapsible=0;dropTarget=0;pointerEvents=0;fillColor=none;top=0;left=0;bottom=0;right=0;points=[[0,0.5],[1,0.5]];portConstraint=eastwest;" parent="ZauKNGMCCzKdzQJjRfw_-85" vertex="1">
          <mxGeometry width="180" height="40" as="geometry" />
        </mxCell>
        <mxCell id="ZauKNGMCCzKdzQJjRfw_-87" value="ID" style="shape=partialRectangle;html=1;whiteSpace=wrap;connectable=0;overflow=hidden;fillColor=none;top=0;left=0;bottom=0;right=0;" parent="ZauKNGMCCzKdzQJjRfw_-86" vertex="1">
          <mxGeometry width="60" height="40" as="geometry" />
        </mxCell>
        <mxCell id="ZauKNGMCCzKdzQJjRfw_-88" value="age" style="shape=partialRectangle;html=1;whiteSpace=wrap;connectable=0;overflow=hidden;fillColor=none;top=0;left=0;bottom=0;right=0;" parent="ZauKNGMCCzKdzQJjRfw_-86" vertex="1">
          <mxGeometry x="60" width="60" height="40" as="geometry" />
        </mxCell>
        <mxCell id="ZauKNGMCCzKdzQJjRfw_-89" value="name" style="shape=partialRectangle;html=1;whiteSpace=wrap;connectable=0;overflow=hidden;fillColor=none;top=0;left=0;bottom=0;right=0;" parent="ZauKNGMCCzKdzQJjRfw_-86" vertex="1">
          <mxGeometry x="120" width="60" height="40" as="geometry" />
        </mxCell>
        <mxCell id="ZauKNGMCCzKdzQJjRfw_-90" value="" style="shape=partialRectangle;html=1;whiteSpace=wrap;collapsible=0;dropTarget=0;pointerEvents=0;fillColor=none;top=0;left=0;bottom=0;right=0;points=[[0,0.5],[1,0.5]];portConstraint=eastwest;" parent="ZauKNGMCCzKdzQJjRfw_-85" vertex="1">
          <mxGeometry y="40" width="180" height="40" as="geometry" />
        </mxCell>
        <mxCell id="ZauKNGMCCzKdzQJjRfw_-91" value="1" style="shape=partialRectangle;html=1;whiteSpace=wrap;connectable=0;overflow=hidden;fillColor=none;top=0;left=0;bottom=0;right=0;" parent="ZauKNGMCCzKdzQJjRfw_-90" vertex="1">
          <mxGeometry width="60" height="40" as="geometry" />
        </mxCell>
        <mxCell id="ZauKNGMCCzKdzQJjRfw_-92" value="30" style="shape=partialRectangle;html=1;whiteSpace=wrap;connectable=0;overflow=hidden;fillColor=none;top=0;left=0;bottom=0;right=0;" parent="ZauKNGMCCzKdzQJjRfw_-90" vertex="1">
          <mxGeometry x="60" width="60" height="40" as="geometry" />
        </mxCell>
        <mxCell id="ZauKNGMCCzKdzQJjRfw_-93" value="jack" style="shape=partialRectangle;html=1;whiteSpace=wrap;connectable=0;overflow=hidden;fillColor=none;top=0;left=0;bottom=0;right=0;" parent="ZauKNGMCCzKdzQJjRfw_-90" vertex="1">
          <mxGeometry x="120" width="60" height="40" as="geometry" />
        </mxCell>
        <mxCell id="ZauKNGMCCzKdzQJjRfw_-94" value="" style="shape=partialRectangle;html=1;whiteSpace=wrap;collapsible=0;dropTarget=0;pointerEvents=0;fillColor=none;top=0;left=0;bottom=0;right=0;points=[[0,0.5],[1,0.5]];portConstraint=eastwest;" parent="ZauKNGMCCzKdzQJjRfw_-85" vertex="1">
          <mxGeometry y="80" width="180" height="40" as="geometry" />
        </mxCell>
        <mxCell id="ZauKNGMCCzKdzQJjRfw_-95" value="2" style="shape=partialRectangle;html=1;whiteSpace=wrap;connectable=0;overflow=hidden;fillColor=none;top=0;left=0;bottom=0;right=0;" parent="ZauKNGMCCzKdzQJjRfw_-94" vertex="1">
          <mxGeometry width="60" height="40" as="geometry" />
        </mxCell>
        <mxCell id="ZauKNGMCCzKdzQJjRfw_-96" value="20" style="shape=partialRectangle;html=1;whiteSpace=wrap;connectable=0;overflow=hidden;fillColor=none;top=0;left=0;bottom=0;right=0;" parent="ZauKNGMCCzKdzQJjRfw_-94" vertex="1">
          <mxGeometry x="60" width="60" height="40" as="geometry" />
        </mxCell>
        <mxCell id="ZauKNGMCCzKdzQJjRfw_-97" value="tom" style="shape=partialRectangle;html=1;whiteSpace=wrap;connectable=0;overflow=hidden;fillColor=none;top=0;left=0;bottom=0;right=0;" parent="ZauKNGMCCzKdzQJjRfw_-94" vertex="1">
          <mxGeometry x="120" width="60" height="40" as="geometry" />
        </mxCell>
        <mxCell id="ZauKNGMCCzKdzQJjRfw_-98" value="" style="shape=partialRectangle;html=1;whiteSpace=wrap;collapsible=0;dropTarget=0;pointerEvents=0;fillColor=none;top=0;left=0;bottom=0;right=0;points=[[0,0.5],[1,0.5]];portConstraint=eastwest;" parent="ZauKNGMCCzKdzQJjRfw_-85" vertex="1">
          <mxGeometry y="120" width="180" height="40" as="geometry" />
        </mxCell>
        <mxCell id="ZauKNGMCCzKdzQJjRfw_-99" value="3" style="shape=partialRectangle;html=1;whiteSpace=wrap;connectable=0;overflow=hidden;fillColor=none;top=0;left=0;bottom=0;right=0;" parent="ZauKNGMCCzKdzQJjRfw_-98" vertex="1">
          <mxGeometry width="60" height="40" as="geometry" />
        </mxCell>
        <mxCell id="ZauKNGMCCzKdzQJjRfw_-100" value="35" style="shape=partialRectangle;html=1;whiteSpace=wrap;connectable=0;overflow=hidden;fillColor=none;top=0;left=0;bottom=0;right=0;" parent="ZauKNGMCCzKdzQJjRfw_-98" vertex="1">
          <mxGeometry x="60" width="60" height="40" as="geometry" />
        </mxCell>
        <mxCell id="ZauKNGMCCzKdzQJjRfw_-101" value="jerry" style="shape=partialRectangle;html=1;whiteSpace=wrap;connectable=0;overflow=hidden;fillColor=none;top=0;left=0;bottom=0;right=0;" parent="ZauKNGMCCzKdzQJjRfw_-98" vertex="1">
          <mxGeometry x="120" width="60" height="40" as="geometry" />
        </mxCell>
        <mxCell id="ZauKNGMCCzKdzQJjRfw_-102" value="" style="shape=partialRectangle;html=1;whiteSpace=wrap;collapsible=0;dropTarget=0;pointerEvents=0;fillColor=none;top=0;left=0;bottom=0;right=0;points=[[0,0.5],[1,0.5]];portConstraint=eastwest;" parent="ZauKNGMCCzKdzQJjRfw_-85" vertex="1">
          <mxGeometry y="160" width="180" height="40" as="geometry" />
        </mxCell>
        <mxCell id="ZauKNGMCCzKdzQJjRfw_-103" value="4" style="shape=partialRectangle;html=1;whiteSpace=wrap;connectable=0;overflow=hidden;fillColor=none;top=0;left=0;bottom=0;right=0;" parent="ZauKNGMCCzKdzQJjRfw_-102" vertex="1">
          <mxGeometry width="60" height="40" as="geometry" />
        </mxCell>
        <mxCell id="ZauKNGMCCzKdzQJjRfw_-104" value="30" style="shape=partialRectangle;html=1;whiteSpace=wrap;connectable=0;overflow=hidden;fillColor=none;top=0;left=0;bottom=0;right=0;" parent="ZauKNGMCCzKdzQJjRfw_-102" vertex="1">
          <mxGeometry x="60" width="60" height="40" as="geometry" />
        </mxCell>
        <mxCell id="ZauKNGMCCzKdzQJjRfw_-105" value="rose" style="shape=partialRectangle;html=1;whiteSpace=wrap;connectable=0;overflow=hidden;fillColor=none;top=0;left=0;bottom=0;right=0;" parent="ZauKNGMCCzKdzQJjRfw_-102" vertex="1">
          <mxGeometry x="120" width="60" height="40" as="geometry" />
        </mxCell>
        <mxCell id="ZauKNGMCCzKdzQJjRfw_-106" value="" style="shape=partialRectangle;html=1;whiteSpace=wrap;collapsible=0;dropTarget=0;pointerEvents=0;fillColor=none;top=0;left=0;bottom=0;right=0;points=[[0,0.5],[1,0.5]];portConstraint=eastwest;" parent="ZauKNGMCCzKdzQJjRfw_-85" vertex="1">
          <mxGeometry y="200" width="180" height="40" as="geometry" />
        </mxCell>
        <mxCell id="ZauKNGMCCzKdzQJjRfw_-107" value="5" style="shape=partialRectangle;html=1;whiteSpace=wrap;connectable=0;overflow=hidden;fillColor=none;top=0;left=0;bottom=0;right=0;" parent="ZauKNGMCCzKdzQJjRfw_-106" vertex="1">
          <mxGeometry width="60" height="40" as="geometry" />
        </mxCell>
        <mxCell id="ZauKNGMCCzKdzQJjRfw_-108" value="20" style="shape=partialRectangle;html=1;whiteSpace=wrap;connectable=0;overflow=hidden;fillColor=none;top=0;left=0;bottom=0;right=0;" parent="ZauKNGMCCzKdzQJjRfw_-106" vertex="1">
          <mxGeometry x="60" width="60" height="40" as="geometry" />
        </mxCell>
        <mxCell id="ZauKNGMCCzKdzQJjRfw_-109" value="小粉" style="shape=partialRectangle;html=1;whiteSpace=wrap;connectable=0;overflow=hidden;fillColor=none;top=0;left=0;bottom=0;right=0;" parent="ZauKNGMCCzKdzQJjRfw_-106" vertex="1">
          <mxGeometry x="120" width="60" height="40" as="geometry" />
        </mxCell>
        <mxCell id="ZauKNGMCCzKdzQJjRfw_-110" value="" style="shape=partialRectangle;html=1;whiteSpace=wrap;collapsible=0;dropTarget=0;pointerEvents=0;fillColor=none;top=0;left=0;bottom=0;right=0;points=[[0,0.5],[1,0.5]];portConstraint=eastwest;" parent="ZauKNGMCCzKdzQJjRfw_-85" vertex="1">
          <mxGeometry y="240" width="180" height="40" as="geometry" />
        </mxCell>
        <mxCell id="ZauKNGMCCzKdzQJjRfw_-111" value="6" style="shape=partialRectangle;html=1;whiteSpace=wrap;connectable=0;overflow=hidden;fillColor=none;top=0;left=0;bottom=0;right=0;" parent="ZauKNGMCCzKdzQJjRfw_-110" vertex="1">
          <mxGeometry width="60" height="40" as="geometry" />
        </mxCell>
        <mxCell id="ZauKNGMCCzKdzQJjRfw_-112" value="30" style="shape=partialRectangle;html=1;whiteSpace=wrap;connectable=0;overflow=hidden;fillColor=none;top=0;left=0;bottom=0;right=0;" parent="ZauKNGMCCzKdzQJjRfw_-110" vertex="1">
          <mxGeometry x="60" width="60" height="40" as="geometry" />
        </mxCell>
        <mxCell id="ZauKNGMCCzKdzQJjRfw_-113" value="老白" style="shape=partialRectangle;html=1;whiteSpace=wrap;connectable=0;overflow=hidden;fillColor=none;top=0;left=0;bottom=0;right=0;" parent="ZauKNGMCCzKdzQJjRfw_-110" vertex="1">
          <mxGeometry x="120" width="60" height="40" as="geometry" />
        </mxCell>
        <mxCell id="ZauKNGMCCzKdzQJjRfw_-114" value="" style="shape=partialRectangle;html=1;whiteSpace=wrap;collapsible=0;dropTarget=0;pointerEvents=0;fillColor=none;top=0;left=0;bottom=0;right=0;points=[[0,0.5],[1,0.5]];portConstraint=eastwest;" parent="ZauKNGMCCzKdzQJjRfw_-85" vertex="1">
          <mxGeometry y="280" width="180" height="40" as="geometry" />
        </mxCell>
        <mxCell id="ZauKNGMCCzKdzQJjRfw_-115" value="7" style="shape=partialRectangle;html=1;whiteSpace=wrap;connectable=0;overflow=hidden;fillColor=none;top=0;left=0;bottom=0;right=0;" parent="ZauKNGMCCzKdzQJjRfw_-114" vertex="1">
          <mxGeometry width="60" height="40" as="geometry" />
        </mxCell>
        <mxCell id="ZauKNGMCCzKdzQJjRfw_-116" value="35" style="shape=partialRectangle;html=1;whiteSpace=wrap;connectable=0;overflow=hidden;fillColor=none;top=0;left=0;bottom=0;right=0;" parent="ZauKNGMCCzKdzQJjRfw_-114" vertex="1">
          <mxGeometry x="60" width="60" height="40" as="geometry" />
        </mxCell>
        <mxCell id="ZauKNGMCCzKdzQJjRfw_-117" value="谢耳朵" style="shape=partialRectangle;html=1;whiteSpace=wrap;connectable=0;overflow=hidden;fillColor=none;top=0;left=0;bottom=0;right=0;" parent="ZauKNGMCCzKdzQJjRfw_-114" vertex="1">
          <mxGeometry x="120" width="60" height="40" as="geometry" />
        </mxCell>
        <mxCell id="ZauKNGMCCzKdzQJjRfw_-276" value="" style="edgeStyle=none;rounded=0;orthogonalLoop=1;jettySize=auto;html=1;fontSize=12;strokeColor=#000000;strokeWidth=1;fillColor=#FF960D;" parent="WIyWlLk6GJQsqaUBKTNV-1" source="ZauKNGMCCzKdzQJjRfw_-274" target="ZauKNGMCCzKdzQJjRfw_-275" edge="1">
          <mxGeometry relative="1" as="geometry" />
        </mxCell>
        <mxCell id="ZauKNGMCCzKdzQJjRfw_-278" value="" style="edgeStyle=none;rounded=0;orthogonalLoop=1;jettySize=auto;html=1;fontSize=12;strokeColor=#000000;strokeWidth=1;fillColor=#FF960D;" parent="WIyWlLk6GJQsqaUBKTNV-1" source="ZauKNGMCCzKdzQJjRfw_-274" target="ZauKNGMCCzKdzQJjRfw_-277" edge="1">
          <mxGeometry relative="1" as="geometry" />
        </mxCell>
        <mxCell id="ZauKNGMCCzKdzQJjRfw_-279" value="" style="edgeStyle=none;rounded=0;orthogonalLoop=1;jettySize=auto;html=1;fontSize=12;strokeColor=#000000;strokeWidth=1;fillColor=#FF960D;" parent="WIyWlLk6GJQsqaUBKTNV-1" source="ZauKNGMCCzKdzQJjRfw_-274" target="ZauKNGMCCzKdzQJjRfw_-277" edge="1">
          <mxGeometry relative="1" as="geometry" />
        </mxCell>
        <mxCell id="ZauKNGMCCzKdzQJjRfw_-280" value="" style="edgeStyle=none;rounded=0;orthogonalLoop=1;jettySize=auto;html=1;fontSize=12;strokeColor=#000000;strokeWidth=1;fillColor=#FF960D;" parent="WIyWlLk6GJQsqaUBKTNV-1" source="ZauKNGMCCzKdzQJjRfw_-274" target="ZauKNGMCCzKdzQJjRfw_-277" edge="1">
          <mxGeometry relative="1" as="geometry" />
        </mxCell>
        <mxCell id="ZauKNGMCCzKdzQJjRfw_-281" value="" style="edgeStyle=none;rounded=0;orthogonalLoop=1;jettySize=auto;html=1;fontSize=12;strokeColor=#000000;strokeWidth=1;fillColor=#FF960D;" parent="WIyWlLk6GJQsqaUBKTNV-1" source="ZauKNGMCCzKdzQJjRfw_-274" target="ZauKNGMCCzKdzQJjRfw_-277" edge="1">
          <mxGeometry relative="1" as="geometry" />
        </mxCell>
        <mxCell id="ZauKNGMCCzKdzQJjRfw_-284" value="" style="edgeStyle=none;rounded=0;orthogonalLoop=1;jettySize=auto;html=1;fontSize=12;strokeColor=#000000;strokeWidth=1;fillColor=#FF960D;" parent="WIyWlLk6GJQsqaUBKTNV-1" source="ZauKNGMCCzKdzQJjRfw_-274" target="ZauKNGMCCzKdzQJjRfw_-283" edge="1">
          <mxGeometry relative="1" as="geometry" />
        </mxCell>
        <mxCell id="ZauKNGMCCzKdzQJjRfw_-274" value="&lt;font style=&quot;font-size: 12px&quot;&gt;root&lt;/font&gt;" style="rounded=0;whiteSpace=wrap;html=1;labelBackgroundColor=none;fontSize=12;verticalAlign=top;" parent="WIyWlLk6GJQsqaUBKTNV-1" vertex="1">
          <mxGeometry x="10" y="217" width="40" height="30" as="geometry" />
        </mxCell>
        <mxCell id="ZauKNGMCCzKdzQJjRfw_-287" style="edgeStyle=none;rounded=0;orthogonalLoop=1;jettySize=auto;html=1;exitX=0.5;exitY=1;exitDx=0;exitDy=0;entryX=0.5;entryY=0;entryDx=0;entryDy=0;fontSize=12;strokeColor=#000000;strokeWidth=1;fillColor=#FF960D;" parent="WIyWlLk6GJQsqaUBKTNV-1" source="ZauKNGMCCzKdzQJjRfw_-275" target="ZauKNGMCCzKdzQJjRfw_-277" edge="1">
          <mxGeometry relative="1" as="geometry" />
        </mxCell>
        <mxCell id="ZauKNGMCCzKdzQJjRfw_-294" style="edgeStyle=none;rounded=0;orthogonalLoop=1;jettySize=auto;html=1;exitX=1;exitY=0.5;exitDx=0;exitDy=0;entryX=0;entryY=0.5;entryDx=0;entryDy=0;fontSize=12;strokeColor=#000000;strokeWidth=1;fillColor=#FF960D;" parent="WIyWlLk6GJQsqaUBKTNV-1" source="ZauKNGMCCzKdzQJjRfw_-275" target="ZauKNGMCCzKdzQJjRfw_-291" edge="1">
          <mxGeometry relative="1" as="geometry" />
        </mxCell>
        <mxCell id="ZauKNGMCCzKdzQJjRfw_-275" value="&lt;font style=&quot;font-size: 12px&quot;&gt;20&lt;/font&gt;" style="rounded=0;whiteSpace=wrap;html=1;labelBackgroundColor=none;fontSize=12;verticalAlign=top;" parent="WIyWlLk6GJQsqaUBKTNV-1" vertex="1">
          <mxGeometry x="80" y="137" width="40" height="30" as="geometry" />
        </mxCell>
        <mxCell id="ZauKNGMCCzKdzQJjRfw_-288" style="edgeStyle=none;rounded=0;orthogonalLoop=1;jettySize=auto;html=1;exitX=0.5;exitY=1;exitDx=0;exitDy=0;entryX=0.5;entryY=0;entryDx=0;entryDy=0;fontSize=12;strokeColor=#000000;strokeWidth=1;fillColor=#FF960D;" parent="WIyWlLk6GJQsqaUBKTNV-1" source="ZauKNGMCCzKdzQJjRfw_-277" target="ZauKNGMCCzKdzQJjRfw_-283" edge="1">
          <mxGeometry relative="1" as="geometry" />
        </mxCell>
        <mxCell id="ZauKNGMCCzKdzQJjRfw_-300" style="edgeStyle=none;rounded=0;orthogonalLoop=1;jettySize=auto;html=1;exitX=1;exitY=0.5;exitDx=0;exitDy=0;entryX=0;entryY=0.5;entryDx=0;entryDy=0;fontSize=12;strokeColor=#000000;strokeWidth=1;fillColor=#FF960D;" parent="WIyWlLk6GJQsqaUBKTNV-1" source="ZauKNGMCCzKdzQJjRfw_-277" target="ZauKNGMCCzKdzQJjRfw_-296" edge="1">
          <mxGeometry relative="1" as="geometry" />
        </mxCell>
        <mxCell id="ZauKNGMCCzKdzQJjRfw_-277" value="&lt;font style=&quot;font-size: 12px&quot;&gt;30&lt;/font&gt;" style="rounded=0;whiteSpace=wrap;html=1;labelBackgroundColor=none;fontSize=12;verticalAlign=top;" parent="WIyWlLk6GJQsqaUBKTNV-1" vertex="1">
          <mxGeometry x="80" y="197" width="40" height="30" as="geometry" />
        </mxCell>
        <mxCell id="ZauKNGMCCzKdzQJjRfw_-305" style="edgeStyle=none;rounded=0;orthogonalLoop=1;jettySize=auto;html=1;exitX=1;exitY=0.5;exitDx=0;exitDy=0;entryX=0;entryY=0.5;entryDx=0;entryDy=0;fontSize=12;strokeColor=#000000;strokeWidth=1;fillColor=#FF960D;" parent="WIyWlLk6GJQsqaUBKTNV-1" source="ZauKNGMCCzKdzQJjRfw_-283" target="ZauKNGMCCzKdzQJjRfw_-302" edge="1">
          <mxGeometry relative="1" as="geometry" />
        </mxCell>
        <mxCell id="ZauKNGMCCzKdzQJjRfw_-283" value="&lt;font style=&quot;font-size: 12px&quot;&gt;35&lt;/font&gt;" style="rounded=0;whiteSpace=wrap;html=1;labelBackgroundColor=none;fontSize=12;verticalAlign=top;" parent="WIyWlLk6GJQsqaUBKTNV-1" vertex="1">
          <mxGeometry x="80" y="262" width="40" height="30" as="geometry" />
        </mxCell>
        <mxCell id="ZauKNGMCCzKdzQJjRfw_-290" value="" style="shape=table;html=1;whiteSpace=wrap;startSize=0;container=1;collapsible=0;childLayout=tableLayout;" parent="WIyWlLk6GJQsqaUBKTNV-1" vertex="1">
          <mxGeometry x="170" y="127" width="120" height="40" as="geometry" />
        </mxCell>
        <mxCell id="ZauKNGMCCzKdzQJjRfw_-291" value="" style="shape=partialRectangle;html=1;whiteSpace=wrap;collapsible=0;dropTarget=0;pointerEvents=0;fillColor=none;top=0;left=0;bottom=0;right=0;points=[[0,0.5],[1,0.5]];portConstraint=eastwest;" parent="ZauKNGMCCzKdzQJjRfw_-290" vertex="1">
          <mxGeometry width="120" height="40" as="geometry" />
        </mxCell>
        <mxCell id="ZauKNGMCCzKdzQJjRfw_-292" value="2" style="shape=partialRectangle;html=1;whiteSpace=wrap;connectable=0;overflow=hidden;fillColor=none;top=0;left=0;bottom=0;right=0;" parent="ZauKNGMCCzKdzQJjRfw_-291" vertex="1">
          <mxGeometry width="60" height="40" as="geometry" />
        </mxCell>
        <mxCell id="ZauKNGMCCzKdzQJjRfw_-293" value="5" style="shape=partialRectangle;html=1;whiteSpace=wrap;connectable=0;overflow=hidden;fillColor=none;top=0;left=0;bottom=0;right=0;" parent="ZauKNGMCCzKdzQJjRfw_-291" vertex="1">
          <mxGeometry x="60" width="60" height="40" as="geometry" />
        </mxCell>
        <mxCell id="ZauKNGMCCzKdzQJjRfw_-295" value="" style="shape=table;html=1;whiteSpace=wrap;startSize=0;container=1;collapsible=0;childLayout=tableLayout;" parent="WIyWlLk6GJQsqaUBKTNV-1" vertex="1">
          <mxGeometry x="170" y="207" width="180" height="40" as="geometry" />
        </mxCell>
        <mxCell id="ZauKNGMCCzKdzQJjRfw_-296" value="" style="shape=partialRectangle;html=1;whiteSpace=wrap;collapsible=0;dropTarget=0;pointerEvents=0;fillColor=none;top=0;left=0;bottom=0;right=0;points=[[0,0.5],[1,0.5]];portConstraint=eastwest;" parent="ZauKNGMCCzKdzQJjRfw_-295" vertex="1">
          <mxGeometry width="180" height="40" as="geometry" />
        </mxCell>
        <mxCell id="ZauKNGMCCzKdzQJjRfw_-297" value="1" style="shape=partialRectangle;html=1;whiteSpace=wrap;connectable=0;overflow=hidden;fillColor=none;top=0;left=0;bottom=0;right=0;" parent="ZauKNGMCCzKdzQJjRfw_-296" vertex="1">
          <mxGeometry width="60" height="40" as="geometry" />
        </mxCell>
        <mxCell id="ZauKNGMCCzKdzQJjRfw_-298" value="4" style="shape=partialRectangle;html=1;whiteSpace=wrap;connectable=0;overflow=hidden;fillColor=none;top=0;left=0;bottom=0;right=0;" parent="ZauKNGMCCzKdzQJjRfw_-296" vertex="1">
          <mxGeometry x="60" width="60" height="40" as="geometry" />
        </mxCell>
        <mxCell id="ZauKNGMCCzKdzQJjRfw_-299" value="6" style="shape=partialRectangle;html=1;whiteSpace=wrap;connectable=0;overflow=hidden;fillColor=none;top=0;left=0;bottom=0;right=0;" parent="ZauKNGMCCzKdzQJjRfw_-296" vertex="1">
          <mxGeometry x="120" width="60" height="40" as="geometry" />
        </mxCell>
        <mxCell id="ZauKNGMCCzKdzQJjRfw_-301" value="" style="shape=table;html=1;whiteSpace=wrap;startSize=0;container=1;collapsible=0;childLayout=tableLayout;" parent="WIyWlLk6GJQsqaUBKTNV-1" vertex="1">
          <mxGeometry x="170" y="307" width="120" height="40" as="geometry" />
        </mxCell>
        <mxCell id="ZauKNGMCCzKdzQJjRfw_-302" value="" style="shape=partialRectangle;html=1;whiteSpace=wrap;collapsible=0;dropTarget=0;pointerEvents=0;fillColor=none;top=0;left=0;bottom=0;right=0;points=[[0,0.5],[1,0.5]];portConstraint=eastwest;" parent="ZauKNGMCCzKdzQJjRfw_-301" vertex="1">
          <mxGeometry width="120" height="40" as="geometry" />
        </mxCell>
        <mxCell id="ZauKNGMCCzKdzQJjRfw_-303" value="3" style="shape=partialRectangle;html=1;whiteSpace=wrap;connectable=0;overflow=hidden;fillColor=none;top=0;left=0;bottom=0;right=0;" parent="ZauKNGMCCzKdzQJjRfw_-302" vertex="1">
          <mxGeometry width="60" height="40" as="geometry" />
        </mxCell>
        <mxCell id="ZauKNGMCCzKdzQJjRfw_-304" value="7" style="shape=partialRectangle;html=1;whiteSpace=wrap;connectable=0;overflow=hidden;fillColor=none;top=0;left=0;bottom=0;right=0;" parent="ZauKNGMCCzKdzQJjRfw_-302" vertex="1">
          <mxGeometry x="60" width="60" height="40" as="geometry" />
        </mxCell>
        <mxCell id="60Vok8ZBTatKsxoqVuzg-1" value="" style="shape=flexArrow;endArrow=classic;html=1;" parent="WIyWlLk6GJQsqaUBKTNV-1" edge="1">
          <mxGeometry width="50" height="50" relative="1" as="geometry">
            <mxPoint x="364" y="230" as="sourcePoint" />
            <mxPoint x="470" y="230" as="targetPoint" />
          </mxGeometry>
        </mxCell>
        <mxCell id="60Vok8ZBTatKsxoqVuzg-2" value="sort" style="edgeLabel;html=1;align=center;verticalAlign=middle;resizable=0;points=[];" parent="60Vok8ZBTatKsxoqVuzg-1" vertex="1" connectable="0">
          <mxGeometry x="-0.0943" y="1" relative="1" as="geometry">
            <mxPoint as="offset" />
          </mxGeometry>
        </mxCell>
        <mxCell id="60Vok8ZBTatKsxoqVuzg-3" value="" style="shape=table;html=1;whiteSpace=wrap;startSize=0;container=1;collapsible=0;childLayout=tableLayout;" parent="WIyWlLk6GJQsqaUBKTNV-1" vertex="1">
          <mxGeometry x="480" y="110" width="60" height="280" as="geometry" />
        </mxCell>
        <mxCell id="60Vok8ZBTatKsxoqVuzg-4" value="" style="shape=partialRectangle;html=1;whiteSpace=wrap;collapsible=0;dropTarget=0;pointerEvents=0;fillColor=none;top=0;left=0;bottom=0;right=0;points=[[0,0.5],[1,0.5]];portConstraint=eastwest;" parent="60Vok8ZBTatKsxoqVuzg-3" vertex="1">
          <mxGeometry width="60" height="40" as="geometry" />
        </mxCell>
        <mxCell id="60Vok8ZBTatKsxoqVuzg-5" value="1" style="shape=partialRectangle;html=1;whiteSpace=wrap;connectable=0;overflow=hidden;fillColor=none;top=0;left=0;bottom=0;right=0;" parent="60Vok8ZBTatKsxoqVuzg-4" vertex="1">
          <mxGeometry width="60" height="40" as="geometry" />
        </mxCell>
        <mxCell id="60Vok8ZBTatKsxoqVuzg-6" value="" style="shape=partialRectangle;html=1;whiteSpace=wrap;collapsible=0;dropTarget=0;pointerEvents=0;fillColor=none;top=0;left=0;bottom=0;right=0;points=[[0,0.5],[1,0.5]];portConstraint=eastwest;" parent="60Vok8ZBTatKsxoqVuzg-3" vertex="1">
          <mxGeometry y="40" width="60" height="40" as="geometry" />
        </mxCell>
        <mxCell id="60Vok8ZBTatKsxoqVuzg-7" value="2" style="shape=partialRectangle;html=1;whiteSpace=wrap;connectable=0;overflow=hidden;fillColor=none;top=0;left=0;bottom=0;right=0;" parent="60Vok8ZBTatKsxoqVuzg-6" vertex="1">
          <mxGeometry width="60" height="40" as="geometry" />
        </mxCell>
        <mxCell id="60Vok8ZBTatKsxoqVuzg-8" value="" style="shape=partialRectangle;html=1;whiteSpace=wrap;collapsible=0;dropTarget=0;pointerEvents=0;fillColor=none;top=0;left=0;bottom=0;right=0;points=[[0,0.5],[1,0.5]];portConstraint=eastwest;" parent="60Vok8ZBTatKsxoqVuzg-3" vertex="1">
          <mxGeometry y="80" width="60" height="40" as="geometry" />
        </mxCell>
        <mxCell id="60Vok8ZBTatKsxoqVuzg-9" value="3" style="shape=partialRectangle;html=1;whiteSpace=wrap;connectable=0;overflow=hidden;fillColor=none;top=0;left=0;bottom=0;right=0;" parent="60Vok8ZBTatKsxoqVuzg-8" vertex="1">
          <mxGeometry width="60" height="40" as="geometry" />
        </mxCell>
        <mxCell id="60Vok8ZBTatKsxoqVuzg-10" value="" style="shape=partialRectangle;html=1;whiteSpace=wrap;collapsible=0;dropTarget=0;pointerEvents=0;fillColor=none;top=0;left=0;bottom=0;right=0;points=[[0,0.5],[1,0.5]];portConstraint=eastwest;" parent="60Vok8ZBTatKsxoqVuzg-3" vertex="1">
          <mxGeometry y="120" width="60" height="40" as="geometry" />
        </mxCell>
        <mxCell id="60Vok8ZBTatKsxoqVuzg-11" value="4" style="shape=partialRectangle;html=1;whiteSpace=wrap;connectable=0;overflow=hidden;fillColor=none;top=0;left=0;bottom=0;right=0;" parent="60Vok8ZBTatKsxoqVuzg-10" vertex="1">
          <mxGeometry width="60" height="40" as="geometry" />
        </mxCell>
        <mxCell id="60Vok8ZBTatKsxoqVuzg-12" value="" style="shape=partialRectangle;html=1;whiteSpace=wrap;collapsible=0;dropTarget=0;pointerEvents=0;fillColor=none;top=0;left=0;bottom=0;right=0;points=[[0,0.5],[1,0.5]];portConstraint=eastwest;" parent="60Vok8ZBTatKsxoqVuzg-3" vertex="1">
          <mxGeometry y="160" width="60" height="40" as="geometry" />
        </mxCell>
        <mxCell id="60Vok8ZBTatKsxoqVuzg-13" value="5" style="shape=partialRectangle;html=1;whiteSpace=wrap;connectable=0;overflow=hidden;fillColor=none;top=0;left=0;bottom=0;right=0;" parent="60Vok8ZBTatKsxoqVuzg-12" vertex="1">
          <mxGeometry width="60" height="40" as="geometry" />
        </mxCell>
        <mxCell id="60Vok8ZBTatKsxoqVuzg-14" value="" style="shape=partialRectangle;html=1;whiteSpace=wrap;collapsible=0;dropTarget=0;pointerEvents=0;fillColor=none;top=0;left=0;bottom=0;right=0;points=[[0,0.5],[1,0.5]];portConstraint=eastwest;" parent="60Vok8ZBTatKsxoqVuzg-3" vertex="1">
          <mxGeometry y="200" width="60" height="40" as="geometry" />
        </mxCell>
        <mxCell id="60Vok8ZBTatKsxoqVuzg-15" value="6" style="shape=partialRectangle;html=1;whiteSpace=wrap;connectable=0;overflow=hidden;fillColor=none;top=0;left=0;bottom=0;right=0;" parent="60Vok8ZBTatKsxoqVuzg-14" vertex="1">
          <mxGeometry width="60" height="40" as="geometry" />
        </mxCell>
        <mxCell id="60Vok8ZBTatKsxoqVuzg-16" value="" style="shape=partialRectangle;html=1;whiteSpace=wrap;collapsible=0;dropTarget=0;pointerEvents=0;fillColor=none;top=0;left=0;bottom=0;right=0;points=[[0,0.5],[1,0.5]];portConstraint=eastwest;" parent="60Vok8ZBTatKsxoqVuzg-3" vertex="1">
          <mxGeometry y="240" width="60" height="40" as="geometry" />
        </mxCell>
        <mxCell id="60Vok8ZBTatKsxoqVuzg-17" value="7" style="shape=partialRectangle;html=1;whiteSpace=wrap;connectable=0;overflow=hidden;fillColor=none;top=0;left=0;bottom=0;right=0;" parent="60Vok8ZBTatKsxoqVuzg-16" vertex="1">
          <mxGeometry width="60" height="40" as="geometry" />
        </mxCell>
        <mxCell id="60Vok8ZBTatKsxoqVuzg-19" style="edgeStyle=none;rounded=0;orthogonalLoop=1;jettySize=auto;html=1;exitX=1;exitY=0.5;exitDx=0;exitDy=0;entryX=0;entryY=0.5;entryDx=0;entryDy=0;" parent="WIyWlLk6GJQsqaUBKTNV-1" source="60Vok8ZBTatKsxoqVuzg-4" target="ZauKNGMCCzKdzQJjRfw_-90" edge="1">
          <mxGeometry relative="1" as="geometry" />
        </mxCell>
        <mxCell id="60Vok8ZBTatKsxoqVuzg-20" style="edgeStyle=none;rounded=0;orthogonalLoop=1;jettySize=auto;html=1;exitX=1;exitY=0.5;exitDx=0;exitDy=0;entryX=0;entryY=0.5;entryDx=0;entryDy=0;" parent="WIyWlLk6GJQsqaUBKTNV-1" source="60Vok8ZBTatKsxoqVuzg-6" target="ZauKNGMCCzKdzQJjRfw_-94" edge="1">
          <mxGeometry relative="1" as="geometry" />
        </mxCell>
        <mxCell id="ox-NqA7KDx4A8G5WSG92-0" style="edgeStyle=none;rounded=0;orthogonalLoop=1;jettySize=auto;html=1;exitX=1;exitY=0.5;exitDx=0;exitDy=0;entryX=0;entryY=0.5;entryDx=0;entryDy=0;" parent="WIyWlLk6GJQsqaUBKTNV-1" source="60Vok8ZBTatKsxoqVuzg-8" target="ZauKNGMCCzKdzQJjRfw_-98" edge="1">
          <mxGeometry relative="1" as="geometry" />
        </mxCell>
        <mxCell id="ox-NqA7KDx4A8G5WSG92-1" style="edgeStyle=none;rounded=0;orthogonalLoop=1;jettySize=auto;html=1;exitX=1;exitY=0.5;exitDx=0;exitDy=0;entryX=0;entryY=0.5;entryDx=0;entryDy=0;" parent="WIyWlLk6GJQsqaUBKTNV-1" source="60Vok8ZBTatKsxoqVuzg-10" target="ZauKNGMCCzKdzQJjRfw_-102" edge="1">
          <mxGeometry relative="1" as="geometry" />
        </mxCell>
        <mxCell id="ox-NqA7KDx4A8G5WSG92-2" style="edgeStyle=none;rounded=0;orthogonalLoop=1;jettySize=auto;html=1;exitX=1;exitY=0.5;exitDx=0;exitDy=0;entryX=0;entryY=0.5;entryDx=0;entryDy=0;" parent="WIyWlLk6GJQsqaUBKTNV-1" source="60Vok8ZBTatKsxoqVuzg-12" target="ZauKNGMCCzKdzQJjRfw_-106" edge="1">
          <mxGeometry relative="1" as="geometry" />
        </mxCell>
        <mxCell id="ox-NqA7KDx4A8G5WSG92-3" style="edgeStyle=none;rounded=0;orthogonalLoop=1;jettySize=auto;html=1;exitX=1;exitY=0.5;exitDx=0;exitDy=0;entryX=0;entryY=0.5;entryDx=0;entryDy=0;" parent="WIyWlLk6GJQsqaUBKTNV-1" source="60Vok8ZBTatKsxoqVuzg-14" target="ZauKNGMCCzKdzQJjRfw_-110" edge="1">
          <mxGeometry relative="1" as="geometry" />
        </mxCell>
        <mxCell id="ox-NqA7KDx4A8G5WSG92-4" style="edgeStyle=none;rounded=0;orthogonalLoop=1;jettySize=auto;html=1;exitX=1;exitY=0.5;exitDx=0;exitDy=0;entryX=0;entryY=0.5;entryDx=0;entryDy=0;" parent="WIyWlLk6GJQsqaUBKTNV-1" source="60Vok8ZBTatKsxoqVuzg-16" target="ZauKNGMCCzKdzQJjRfw_-114" edge="1">
          <mxGeometry relative="1" as="geometry" />
        </mxCell>
      </root>
    </mxGraphModel>
  </diagram>
</mxfile>
